<svg width="71" height="71" viewBox="0 0 71 71" fill="none" xmlns="http://www.w3.org/2000/svg">
<g filter="url(#filter0_d_33_1302)">
<path d="M35.3216 44.7867H23.5316L21.6416 50.3667H13.5866L25.0166 18.7767H33.9266L45.3566 50.3667H37.2116L35.3216 44.7867ZM33.3416 38.8467L29.4266 27.2817L25.5566 38.8467H33.3416ZM52.7053 22.6467C51.3553 22.6467 50.2453 22.2567 49.3753 21.4767C48.5353 20.6667 48.1153 19.6767 48.1153 18.5067C48.1153 17.3067 48.5353 16.3167 49.3753 15.5367C50.2453 14.7267 51.3553 14.3217 52.7053 14.3217C54.0253 14.3217 55.1053 14.7267 55.9453 15.5367C56.8153 16.3167 57.2503 17.3067 57.2503 18.5067C57.2503 19.6767 56.8153 20.6667 55.9453 21.4767C55.1053 22.2567 54.0253 22.6467 52.7053 22.6467ZM56.5303 25.2567V50.3667H48.8353V25.2567H56.5303Z" fill="#F2FAFF"/>
</g>
<defs>
<filter id="filter0_d_33_1302" x="9.58657" y="14.3217" width="51.6637" height="44.045" filterUnits="userSpaceOnUse" color-interpolation-filters="sRGB">
<feFlood flood-opacity="0" result="BackgroundImageFix"/>
<feColorMatrix in="SourceAlpha" type="matrix" values="0 0 0 0 0 0 0 0 0 0 0 0 0 0 0 0 0 0 127 0" result="hardAlpha"/>
<feOffset dy="4"/>
<feGaussianBlur stdDeviation="2"/>
<feComposite in2="hardAlpha" operator="out"/>
<feColorMatrix type="matrix" values="0 0 0 0 0 0 0 0 0 0 0 0 0 0 0 0 0 0 0.1 0"/>
<feBlend mode="normal" in2="BackgroundImageFix" result="effect1_dropShadow_33_1302"/>
<feBlend mode="normal" in="SourceGraphic" in2="effect1_dropShadow_33_1302" result="shape"/>
</filter>
</defs>
</svg>
