<svg width="71" height="71" viewBox="0 0 71 71" fill="none" xmlns="http://www.w3.org/2000/svg">
<g filter="url(#filter0_d_33_1257)">
<path d="M35.7781 26.58C35.7781 28.41 35.3581 30.09 34.5181 31.62C33.6781 33.12 32.3881 34.335 30.6481 35.265C28.9081 36.195 26.7481 36.66 24.1681 36.66H19.3981V48H11.7031V16.41H24.1681C26.6881 16.41 28.8181 16.845 30.5581 17.715C32.2981 18.585 33.6031 19.785 34.4731 21.315C35.3431 22.845 35.7781 24.6 35.7781 26.58ZM23.5831 30.54C25.0531 30.54 26.1481 30.195 26.8681 29.505C27.5881 28.815 27.9481 27.84 27.9481 26.58C27.9481 25.32 27.5881 24.345 26.8681 23.655C26.1481 22.965 25.0531 22.62 23.5831 22.62H19.3981V30.54H23.5831ZM49.9991 48.36C47.8091 48.36 45.8591 47.985 44.1491 47.235C42.4391 46.485 41.0891 45.465 40.0991 44.175C39.1091 42.855 38.5541 41.385 38.4341 39.765H46.0391C46.1291 40.635 46.5341 41.34 47.2541 41.88C47.9741 42.42 48.8591 42.69 49.9091 42.69C50.8691 42.69 51.6041 42.51 52.1141 42.15C52.6541 41.76 52.9241 41.265 52.9241 40.665C52.9241 39.945 52.5491 39.42 51.7991 39.09C51.0491 38.73 49.8341 38.34 48.1541 37.92C46.3541 37.5 44.8541 37.065 43.6541 36.615C42.4541 36.135 41.4191 35.4 40.5491 34.41C39.6791 33.39 39.2441 32.025 39.2441 30.315C39.2441 28.875 39.6341 27.57 40.4141 26.4C41.2241 25.2 42.3941 24.255 43.9241 23.565C45.4841 22.875 47.3291 22.53 49.4591 22.53C52.6091 22.53 55.0841 23.31 56.8841 24.87C58.7141 26.43 59.7641 28.5 60.0341 31.08H52.9241C52.8041 30.21 52.4141 29.52 51.7541 29.01C51.1241 28.5 50.2841 28.245 49.2341 28.245C48.3341 28.245 47.6441 28.425 47.1641 28.785C46.6841 29.115 46.4441 29.58 46.4441 30.18C46.4441 30.9 46.8191 31.44 47.5691 31.8C48.3491 32.16 49.5491 32.52 51.1691 32.88C53.0291 33.36 54.5441 33.84 55.7141 34.32C56.8841 34.77 57.9041 35.52 58.7741 36.57C59.6741 37.59 60.1391 38.97 60.1691 40.71C60.1691 42.18 59.7491 43.5 58.9091 44.67C58.0991 45.81 56.9141 46.71 55.3541 47.37C53.8241 48.03 52.0391 48.36 49.9991 48.36Z" fill="#F2FAFF"/>
</g>
<defs>
<filter id="filter0_d_33_1257" x="7.70309" y="16.41" width="56.4661" height="39.95" filterUnits="userSpaceOnUse" color-interpolation-filters="sRGB">
<feFlood flood-opacity="0" result="BackgroundImageFix"/>
<feColorMatrix in="SourceAlpha" type="matrix" values="0 0 0 0 0 0 0 0 0 0 0 0 0 0 0 0 0 0 127 0" result="hardAlpha"/>
<feOffset dy="4"/>
<feGaussianBlur stdDeviation="2"/>
<feComposite in2="hardAlpha" operator="out"/>
<feColorMatrix type="matrix" values="0 0 0 0 0 0 0 0 0 0 0 0 0 0 0 0 0 0 0.1 0"/>
<feBlend mode="normal" in2="BackgroundImageFix" result="effect1_dropShadow_33_1257"/>
<feBlend mode="normal" in="SourceGraphic" in2="effect1_dropShadow_33_1257" result="shape"/>
</filter>
</defs>
</svg>
