<svg width="71" height="71" viewBox="0 0 71 71" fill="none" xmlns="http://www.w3.org/2000/svg">
<path d="M15.2526 35.21C13.7126 35.21 12.3326 34.96 11.1126 34.46C9.89259 33.96 8.91259 33.22 8.17259 32.24C7.45259 31.26 7.07259 30.08 7.03259 28.7H12.4926C12.5726 29.48 12.8426 30.08 13.3026 30.5C13.7626 30.9 14.3626 31.1 15.1026 31.1C15.8626 31.1 16.4626 30.93 16.9026 30.59C17.3426 30.23 17.5626 29.74 17.5626 29.12C17.5626 28.6 17.3826 28.17 17.0226 27.83C16.6826 27.49 16.2526 27.21 15.7326 26.99C15.2326 26.77 14.5126 26.52 13.5726 26.24C12.2126 25.82 11.1026 25.4 10.2426 24.98C9.38259 24.56 8.64259 23.94 8.02259 23.12C7.40259 22.3 7.09259 21.23 7.09259 19.91C7.09259 17.95 7.80259 16.42 9.22259 15.32C10.6426 14.2 12.4926 13.64 14.7726 13.64C17.0926 13.64 18.9626 14.2 20.3826 15.32C21.8026 16.42 22.5626 17.96 22.6626 19.94H17.1126C17.0726 19.26 16.8226 18.73 16.3626 18.35C15.9026 17.95 15.3126 17.75 14.5926 17.75C13.9726 17.75 13.4726 17.92 13.0926 18.26C12.7126 18.58 12.5226 19.05 12.5226 19.67C12.5226 20.35 12.8426 20.88 13.4826 21.26C14.1226 21.64 15.1226 22.05 16.4826 22.49C17.8426 22.95 18.9426 23.39 19.7826 23.81C20.6426 24.23 21.3826 24.84 22.0026 25.64C22.6226 26.44 22.9326 27.47 22.9326 28.73C22.9326 29.93 22.6226 31.02 22.0026 32C21.4026 32.98 20.5226 33.76 19.3626 34.34C18.2026 34.92 16.8326 35.21 15.2526 35.21ZM31.2196 18.05V22.31H38.0896V26.27H31.2196V30.89H38.9896V35H26.0896V13.94H38.9896V18.05H31.2196ZM52.2801 35.21C50.3001 35.21 48.4801 34.75 46.8201 33.83C45.1801 32.91 43.8701 31.63 42.8901 29.99C41.9301 28.33 41.4501 26.47 41.4501 24.41C41.4501 22.35 41.9301 20.5 42.8901 18.86C43.8701 17.22 45.1801 15.94 46.8201 15.02C48.4801 14.1 50.3001 13.64 52.2801 13.64C54.2601 13.64 56.0701 14.1 57.7101 15.02C59.3701 15.94 60.6701 17.22 61.6101 18.86C62.5701 20.5 63.0501 22.35 63.0501 24.41C63.0501 26.47 62.5701 28.33 61.6101 29.99C60.6501 31.63 59.3501 32.91 57.7101 33.83C56.0701 34.75 54.2601 35.21 52.2801 35.21ZM52.2801 30.53C53.9601 30.53 55.3001 29.97 56.3001 28.85C57.3201 27.73 57.8301 26.25 57.8301 24.41C57.8301 22.55 57.3201 21.07 56.3001 19.97C55.3001 18.85 53.9601 18.29 52.2801 18.29C50.5801 18.29 49.2201 18.84 48.2001 19.94C47.2001 21.04 46.7001 22.53 46.7001 24.41C46.7001 26.27 47.2001 27.76 48.2001 28.88C49.2201 29.98 50.5801 30.53 52.2801 30.53Z" fill="#F2FAFF"/>
</svg>
